<svg xmlns="http://www.w3.org/2000/svg" xmlns:xlink="http://www.w3.org/1999/xlink" width="500" zoomAndPan="magnify" viewBox="0 0 375 374.999991" height="500" preserveAspectRatio="xMidYMid meet" version="1.0"><defs><g/><clipPath id="1fa5e02ecf"><path d="M 251.609375 186 L 317.09375 186 L 317.09375 192 L 251.609375 192 Z M 251.609375 186 " clip-rule="nonzero"/></clipPath><clipPath id="05d971944b"><path d="M 251.609375 190 L 317.09375 190 L 317.09375 196 L 251.609375 196 Z M 251.609375 190 " clip-rule="nonzero"/></clipPath><clipPath id="691178b34e"><path d="M 254.882812 194.175781 L 313.820312 194.175781 L 313.820312 204.40625 L 254.882812 204.40625 Z M 254.882812 194.175781 " clip-rule="nonzero"/></clipPath><clipPath id="0ff25b74cb"><path d="M 276 162.246094 L 280 162.246094 L 280 174 L 276 174 Z M 276 162.246094 " clip-rule="nonzero"/></clipPath><clipPath id="d79436ab8c"><path d="M 282 162.246094 L 286 162.246094 L 286 174 L 282 174 Z M 282 162.246094 " clip-rule="nonzero"/></clipPath><clipPath id="67b9dd72e4"><path d="M 289 162.246094 L 293 162.246094 L 293 174 L 289 174 Z M 289 162.246094 " clip-rule="nonzero"/></clipPath></defs><g clip-path="url(#1fa5e02ecf)"><path fill="#1de9b6" d="M 316.492188 191.566406 L 305.765625 191.566406 C 305.433594 191.566406 305.160156 191.292969 305.160156 190.957031 C 305.160156 190.621094 305.433594 190.347656 305.765625 190.347656 L 315.886719 190.347656 L 315.886719 189.023438 C 315.886719 188.292969 315.296875 187.699219 314.574219 187.699219 L 254.128906 187.699219 C 253.40625 187.699219 252.816406 188.292969 252.816406 189.023438 L 252.816406 190.347656 L 301.664062 190.347656 C 302 190.347656 302.269531 190.621094 302.269531 190.957031 C 302.269531 191.292969 302 191.566406 301.664062 191.566406 L 252.210938 191.566406 C 251.878906 191.566406 251.609375 191.292969 251.609375 190.957031 L 251.609375 189.023438 C 251.609375 187.621094 252.738281 186.480469 254.128906 186.480469 L 314.574219 186.480469 C 315.964844 186.480469 317.09375 187.621094 317.09375 189.023438 L 317.09375 190.957031 C 317.09375 191.292969 316.824219 191.566406 316.492188 191.566406 " fill-opacity="1" fill-rule="nonzero"/></g><g clip-path="url(#05d971944b)"><path fill="#1de9b6" d="M 314.574219 195.429688 L 254.128906 195.429688 C 252.738281 195.429688 251.609375 194.292969 251.609375 192.890625 L 251.609375 190.957031 C 251.609375 190.621094 251.878906 190.347656 252.210938 190.347656 L 301.664062 190.347656 C 302 190.347656 302.269531 190.621094 302.269531 190.957031 C 302.269531 191.292969 302 191.566406 301.664062 191.566406 L 252.816406 191.566406 L 252.816406 192.890625 C 252.816406 193.621094 253.40625 194.214844 254.128906 194.214844 L 314.574219 194.214844 C 315.296875 194.214844 315.886719 193.621094 315.886719 192.890625 L 315.886719 191.566406 L 305.765625 191.566406 C 305.433594 191.566406 305.160156 191.292969 305.160156 190.957031 C 305.160156 190.621094 305.433594 190.347656 305.765625 190.347656 L 316.492188 190.347656 C 316.824219 190.347656 317.09375 190.621094 317.09375 190.957031 L 317.09375 192.890625 C 317.09375 194.292969 315.964844 195.429688 314.574219 195.429688 " fill-opacity="1" fill-rule="nonzero"/></g><path fill="#1de9b6" d="M 256.195312 186.480469 L 312.507812 186.480469 L 311.5625 180.054688 C 311.449219 179.296875 310.792969 178.726562 310.035156 178.726562 L 258.667969 178.726562 C 257.910156 178.726562 257.253906 179.296875 257.144531 180.054688 Z M 313.210938 187.699219 L 255.496094 187.699219 C 255.320312 187.699219 255.152344 187.621094 255.039062 187.488281 C 254.925781 187.355469 254.871094 187.175781 254.898438 187 L 255.949219 179.875 C 256.144531 178.527344 257.316406 177.507812 258.667969 177.507812 L 310.035156 177.507812 C 311.386719 177.507812 312.558594 178.527344 312.753906 179.875 L 313.804688 187 C 313.832031 187.175781 313.78125 187.355469 313.667969 187.488281 C 313.550781 187.621094 313.382812 187.699219 313.210938 187.699219 " fill-opacity="1" fill-rule="nonzero"/><g clip-path="url(#691178b34e)"><path fill="#1de9b6" d="M 256.195312 195.429688 L 257.144531 201.859375 C 257.253906 202.617188 257.910156 203.1875 258.667969 203.1875 L 286.953125 203.1875 C 287.710938 203.1875 288.367188 202.617188 288.476562 201.859375 L 289.421875 195.429688 Z M 296.59375 195.429688 L 297.539062 201.859375 C 297.652344 202.617188 298.308594 203.1875 299.066406 203.1875 L 310.035156 203.1875 C 310.792969 203.1875 311.449219 202.617188 311.5625 201.859375 L 312.507812 195.429688 Z M 310.035156 204.40625 L 299.066406 204.40625 C 297.714844 204.40625 296.546875 203.386719 296.347656 202.039062 L 295.375 195.429688 L 290.644531 195.429688 L 289.671875 202.039062 C 289.472656 203.386719 288.304688 204.40625 286.953125 204.40625 L 258.667969 204.40625 C 257.316406 204.40625 256.144531 203.386719 255.949219 202.039062 L 254.898438 194.910156 C 254.871094 194.738281 254.925781 194.558594 255.039062 194.425781 C 255.152344 194.292969 255.320312 194.214844 255.496094 194.214844 L 290.113281 194.214844 C 290.121094 194.214844 290.125 194.214844 290.132812 194.214844 L 295.886719 194.214844 C 295.890625 194.214844 295.898438 194.214844 295.90625 194.214844 L 313.210938 194.214844 C 313.382812 194.214844 313.550781 194.292969 313.667969 194.425781 C 313.78125 194.558594 313.832031 194.738281 313.804688 194.910156 L 312.753906 202.039062 C 312.558594 203.386719 311.386719 204.40625 310.035156 204.40625 " fill-opacity="1" fill-rule="nonzero"/></g><g clip-path="url(#0ff25b74cb)"><path fill="#1de9b6" d="M 277.167969 173.222656 C 276.835938 173.222656 276.566406 172.953125 276.566406 172.613281 C 276.566406 171.554688 277.097656 171.007812 277.527344 170.566406 C 277.898438 170.183594 278.144531 169.929688 278.144531 169.367188 C 278.144531 168.804688 277.898438 168.550781 277.527344 168.167969 C 277.097656 167.726562 276.566406 167.179688 276.566406 166.117188 C 276.566406 165.058594 277.097656 164.507812 277.527344 164.070312 C 277.898438 163.6875 278.144531 163.433594 278.144531 162.871094 C 278.144531 162.535156 278.414062 162.261719 278.746094 162.261719 C 279.082031 162.261719 279.351562 162.535156 279.351562 162.871094 C 279.351562 163.929688 278.820312 164.480469 278.390625 164.921875 C 278.019531 165.300781 277.773438 165.554688 277.773438 166.117188 C 277.773438 166.683594 278.019531 166.933594 278.390625 167.316406 C 278.820312 167.757812 279.351562 168.308594 279.351562 169.367188 C 279.351562 170.429688 278.820312 170.976562 278.390625 171.417969 C 278.019531 171.800781 277.773438 172.050781 277.773438 172.613281 C 277.773438 172.953125 277.503906 173.222656 277.167969 173.222656 " fill-opacity="1" fill-rule="nonzero"/></g><g clip-path="url(#d79436ab8c)"><path fill="#1de9b6" d="M 283.5625 173.222656 C 283.230469 173.222656 282.960938 172.953125 282.960938 172.613281 C 282.960938 171.554688 283.492188 171.007812 283.921875 170.566406 C 284.292969 170.183594 284.535156 169.929688 284.535156 169.367188 C 284.535156 168.804688 284.292969 168.550781 283.921875 168.167969 C 283.492188 167.726562 282.960938 167.179688 282.960938 166.117188 C 282.960938 165.058594 283.492188 164.507812 283.921875 164.070312 C 284.292969 163.6875 284.535156 163.433594 284.535156 162.871094 C 284.535156 162.535156 284.808594 162.261719 285.140625 162.261719 C 285.472656 162.261719 285.746094 162.535156 285.746094 162.871094 C 285.746094 163.929688 285.210938 164.480469 284.78125 164.921875 C 284.410156 165.300781 284.167969 165.554688 284.167969 166.117188 C 284.167969 166.683594 284.410156 166.933594 284.78125 167.316406 C 285.210938 167.757812 285.746094 168.308594 285.746094 169.367188 C 285.746094 170.429688 285.210938 170.976562 284.78125 171.417969 C 284.410156 171.800781 284.167969 172.050781 284.167969 172.613281 C 284.167969 172.953125 283.894531 173.222656 283.5625 173.222656 " fill-opacity="1" fill-rule="nonzero"/></g><g clip-path="url(#67b9dd72e4)"><path fill="#1de9b6" d="M 289.957031 173.222656 C 289.625 173.222656 289.355469 172.953125 289.355469 172.613281 C 289.355469 171.554688 289.886719 171.007812 290.316406 170.566406 C 290.6875 170.183594 290.929688 169.929688 290.929688 169.367188 C 290.929688 168.804688 290.6875 168.550781 290.316406 168.167969 C 289.886719 167.726562 289.355469 167.179688 289.355469 166.117188 C 289.355469 165.058594 289.886719 164.507812 290.316406 164.070312 C 290.6875 163.6875 290.929688 163.433594 290.929688 162.871094 C 290.929688 162.535156 291.203125 162.261719 291.535156 162.261719 C 291.867188 162.261719 292.136719 162.535156 292.136719 162.871094 C 292.136719 163.929688 291.605469 164.480469 291.175781 164.921875 C 290.804688 165.300781 290.5625 165.554688 290.5625 166.117188 C 290.5625 166.683594 290.804688 166.933594 291.175781 167.316406 C 291.605469 167.757812 292.136719 168.308594 292.136719 169.367188 C 292.136719 170.429688 291.605469 170.976562 291.175781 171.417969 C 290.804688 171.800781 290.5625 172.050781 290.5625 172.613281 C 290.5625 172.953125 290.289062 173.222656 289.957031 173.222656 " fill-opacity="1" fill-rule="nonzero"/></g><path fill="#1de9b6" d="M 258.898438 184.742188 C 258.867188 184.742188 258.835938 184.742188 258.804688 184.738281 C 258.476562 184.6875 258.25 184.378906 258.296875 184.046875 L 258.75 180.984375 C 258.792969 180.6875 259.046875 180.464844 259.347656 180.464844 L 272.277344 180.464844 C 272.613281 180.464844 272.882812 180.738281 272.882812 181.074219 C 272.882812 181.410156 272.613281 181.683594 272.277344 181.683594 L 259.867188 181.683594 L 259.492188 184.222656 C 259.449219 184.527344 259.191406 184.742188 258.898438 184.742188 " fill-opacity="1" fill-rule="nonzero"/><path fill="#1de9b6" d="M 278.605469 181.683594 L 275.960938 181.683594 C 275.628906 181.683594 275.359375 181.410156 275.359375 181.074219 C 275.359375 180.738281 275.628906 180.464844 275.960938 180.464844 L 278.605469 180.464844 C 278.941406 180.464844 279.210938 180.738281 279.210938 181.074219 C 279.210938 181.410156 278.941406 181.683594 278.605469 181.683594 " fill-opacity="1" fill-rule="nonzero"/><g fill="#1de9b6" fill-opacity="1"><g transform="translate(57.762289, 203.449606)"><g><path d="M 23.546875 -18.9375 L 23.546875 -30.359375 L 29.53125 -30.359375 L 29.53125 0 L 23.546875 0 L 23.546875 -13.828125 L 9.953125 -13.828125 L 9.953125 0 L 3.953125 0 L 3.953125 -30.359375 L 9.953125 -30.359375 L 9.953125 -18.9375 Z M 23.546875 -18.9375 "/></g></g></g><g fill="#1de9b6" fill-opacity="1"><g transform="translate(91.257346, 203.449606)"><g><path d="M 16.546875 0.4375 C 13.765625 0.4375 11.3125 -0.128906 9.1875 -1.265625 C 7.0625 -2.398438 5.394531 -4.132812 4.1875 -6.46875 C 2.988281 -8.800781 2.390625 -11.707031 2.390625 -15.1875 C 2.390625 -18.65625 2.988281 -21.554688 4.1875 -23.890625 C 5.394531 -26.222656 7.0625 -27.957031 9.1875 -29.09375 C 11.3125 -30.226562 13.765625 -30.796875 16.546875 -30.796875 C 19.328125 -30.796875 21.773438 -30.226562 23.890625 -29.09375 C 26.015625 -27.96875 27.675781 -26.234375 28.875 -23.890625 C 30.070312 -21.554688 30.671875 -18.65625 30.671875 -15.1875 C 30.671875 -11.707031 30.070312 -8.796875 28.875 -6.453125 C 27.675781 -4.117188 26.015625 -2.382812 23.890625 -1.25 C 21.773438 -0.125 19.328125 0.4375 16.546875 0.4375 Z M 16.546875 -4.78125 C 19.128906 -4.78125 21.097656 -5.601562 22.453125 -7.25 C 23.804688 -8.90625 24.484375 -11.550781 24.484375 -15.1875 C 24.484375 -18.8125 23.804688 -21.453125 22.453125 -23.109375 C 21.097656 -24.773438 19.128906 -25.609375 16.546875 -25.609375 C 13.960938 -25.609375 11.988281 -24.773438 10.625 -23.109375 C 9.257812 -21.453125 8.578125 -18.8125 8.578125 -15.1875 C 8.578125 -11.550781 9.257812 -8.90625 10.625 -7.25 C 11.988281 -5.601562 13.960938 -4.78125 16.546875 -4.78125 Z M 16.546875 -4.78125 "/></g></g></g><g fill="#1de9b6" fill-opacity="1"><g transform="translate(124.33709, 203.449606)"><g><path d="M 24.34375 -30.359375 L 24.34375 -25.3125 L 15.578125 -25.3125 L 15.578125 0 L 9.59375 0 L 9.59375 -25.3125 L 0.828125 -25.3125 L 0.828125 -30.359375 Z M 24.34375 -30.359375 "/></g></g></g><g fill="#1de9b6" fill-opacity="1"><g transform="translate(149.505102, 203.449606)"><g><path d="M 3.953125 0 L 3.953125 -30.359375 L 16.90625 -30.359375 C 18.769531 -30.359375 20.347656 -30.0625 21.640625 -29.46875 C 22.941406 -28.882812 23.921875 -28.050781 24.578125 -26.96875 C 25.242188 -25.882812 25.578125 -24.597656 25.578125 -23.109375 C 25.578125 -21.765625 25.253906 -20.582031 24.609375 -19.5625 C 23.960938 -18.539062 23.03125 -17.71875 21.8125 -17.09375 L 21.8125 -16.65625 C 23.71875 -16.15625 25.1875 -15.25 26.21875 -13.9375 C 27.257812 -12.625 27.78125 -11.007812 27.78125 -9.09375 C 27.78125 -6.1875 26.90625 -3.941406 25.15625 -2.359375 C 23.40625 -0.785156 20.804688 0 17.359375 0 Z M 15.65625 -18.25 C 18.457031 -18.25 19.859375 -19.507812 19.859375 -22.03125 C 19.859375 -23.320312 19.507812 -24.28125 18.8125 -24.90625 C 18.125 -25.539062 17.070312 -25.859375 15.65625 -25.859375 L 9.953125 -25.859375 L 9.953125 -18.25 Z M 16.765625 -4.75 C 20.066406 -4.75 21.71875 -6.253906 21.71875 -9.265625 C 21.71875 -12.285156 20.066406 -13.796875 16.765625 -13.796875 L 9.953125 -13.796875 L 9.953125 -4.75 Z M 16.765625 -4.75 "/></g></g></g><g fill="#1de9b6" fill-opacity="1"><g transform="translate(179.200034, 203.449606)"><g><path d="M 16.546875 0.4375 C 13.765625 0.4375 11.3125 -0.128906 9.1875 -1.265625 C 7.0625 -2.398438 5.394531 -4.132812 4.1875 -6.46875 C 2.988281 -8.800781 2.390625 -11.707031 2.390625 -15.1875 C 2.390625 -18.65625 2.988281 -21.554688 4.1875 -23.890625 C 5.394531 -26.222656 7.0625 -27.957031 9.1875 -29.09375 C 11.3125 -30.226562 13.765625 -30.796875 16.546875 -30.796875 C 19.328125 -30.796875 21.773438 -30.226562 23.890625 -29.09375 C 26.015625 -27.96875 27.675781 -26.234375 28.875 -23.890625 C 30.070312 -21.554688 30.671875 -18.65625 30.671875 -15.1875 C 30.671875 -11.707031 30.070312 -8.796875 28.875 -6.453125 C 27.675781 -4.117188 26.015625 -2.382812 23.890625 -1.25 C 21.773438 -0.125 19.328125 0.4375 16.546875 0.4375 Z M 16.546875 -4.78125 C 19.128906 -4.78125 21.097656 -5.601562 22.453125 -7.25 C 23.804688 -8.90625 24.484375 -11.550781 24.484375 -15.1875 C 24.484375 -18.8125 23.804688 -21.453125 22.453125 -23.109375 C 21.097656 -24.773438 19.128906 -25.609375 16.546875 -25.609375 C 13.960938 -25.609375 11.988281 -24.773438 10.625 -23.109375 C 9.257812 -21.453125 8.578125 -18.8125 8.578125 -15.1875 C 8.578125 -11.550781 9.257812 -8.90625 10.625 -7.25 C 11.988281 -5.601562 13.960938 -4.78125 16.546875 -4.78125 Z M 16.546875 -4.78125 "/></g></g></g><g fill="#1de9b6" fill-opacity="1"><g transform="translate(212.279777, 203.449606)"><g><path d="M 6.671875 0 L 0.515625 0 L 9.515625 -15.609375 L 0.953125 -30.359375 L 7.328125 -30.359375 L 13.625 -19.484375 L 14.140625 -19.484375 L 20.53125 -30.359375 L 26.609375 -30.359375 L 18.046875 -15.609375 L 27.03125 0 L 20.6875 0 L 13.9375 -11.71875 L 13.421875 -11.71875 Z M 6.671875 0 "/></g></g></g></svg>