<svg xmlns="http://www.w3.org/2000/svg" xmlns:xlink="http://www.w3.org/1999/xlink" width="500" zoomAndPan="magnify" viewBox="0 0 375 374.999991" height="500" preserveAspectRatio="xMidYMid meet" version="1.0"><defs><clipPath id="82428eb652"><path d="M 96.382812 196 L 278.632812 196 L 278.632812 211 L 96.382812 211 Z M 96.382812 196 " clip-rule="nonzero"/></clipPath><clipPath id="0eb1ec3296"><path d="M 96.382812 206 L 278.632812 206 L 278.632812 221 L 96.382812 221 Z M 96.382812 206 " clip-rule="nonzero"/></clipPath><clipPath id="001ce8c0ec"><path d="M 105.492188 217.300781 L 269.519531 217.300781 L 269.519531 245.496094 L 105.492188 245.496094 Z M 105.492188 217.300781 " clip-rule="nonzero"/></clipPath><clipPath id="9c8758b3a3"><path d="M 165 129.296875 L 174 129.296875 L 174 160 L 165 160 Z M 165 129.296875 " clip-rule="nonzero"/></clipPath><clipPath id="f92a886f47"><path d="M 183 129.296875 L 192 129.296875 L 192 160 L 183 160 Z M 183 129.296875 " clip-rule="nonzero"/></clipPath><clipPath id="f79fc90201"><path d="M 201 129.296875 L 210 129.296875 L 210 160 L 201 160 Z M 201 129.296875 " clip-rule="nonzero"/></clipPath></defs><rect x="-37.5" width="450" fill="#ffffff" y="-37.499999" height="449.999989" fill-opacity="1"/><rect x="-37.5" width="450" fill="#1e1e1e" y="-37.499999" height="449.999989" fill-opacity="1"/><g clip-path="url(#82428eb652)"><path fill="#1de9b6" d="M 276.953125 210.105469 L 247.101562 210.105469 C 246.175781 210.105469 245.417969 209.355469 245.417969 208.429688 C 245.417969 207.503906 246.175781 206.753906 247.101562 206.753906 L 275.269531 206.753906 L 275.269531 203.097656 C 275.269531 201.089844 273.632812 199.453125 271.617188 199.453125 L 103.394531 199.453125 C 101.378906 199.453125 99.742188 201.089844 99.742188 203.097656 L 99.742188 206.753906 L 235.691406 206.753906 C 236.621094 206.753906 237.375 207.503906 237.375 208.429688 C 237.375 209.355469 236.621094 210.105469 235.691406 210.105469 L 98.058594 210.105469 C 97.132812 210.105469 96.382812 209.355469 96.382812 208.429688 L 96.382812 203.097656 C 96.382812 199.238281 99.527344 196.097656 103.394531 196.097656 L 271.617188 196.097656 C 275.484375 196.097656 278.632812 199.238281 278.632812 203.097656 L 278.632812 208.429688 C 278.632812 209.355469 277.878906 210.105469 276.953125 210.105469 " fill-opacity="1" fill-rule="nonzero"/></g><g clip-path="url(#0eb1ec3296)"><path fill="#1de9b6" d="M 271.617188 220.761719 L 103.394531 220.761719 C 99.527344 220.761719 96.382812 217.621094 96.382812 213.761719 L 96.382812 208.429688 C 96.382812 207.503906 97.132812 206.753906 98.058594 206.753906 L 235.691406 206.753906 C 236.621094 206.753906 237.375 207.503906 237.375 208.429688 C 237.375 209.355469 236.621094 210.105469 235.691406 210.105469 L 99.742188 210.105469 L 99.742188 213.761719 C 99.742188 215.773438 101.378906 217.40625 103.394531 217.40625 L 271.617188 217.40625 C 273.632812 217.40625 275.269531 215.773438 275.269531 213.761719 L 275.269531 210.105469 L 247.101562 210.105469 C 246.175781 210.105469 245.417969 209.355469 245.417969 208.429688 C 245.417969 207.503906 246.175781 206.753906 247.101562 206.753906 L 276.953125 206.753906 C 277.878906 206.753906 278.632812 207.503906 278.632812 208.429688 L 278.632812 213.761719 C 278.632812 217.621094 275.484375 220.761719 271.617188 220.761719 " fill-opacity="1" fill-rule="nonzero"/></g><path fill="#1de9b6" d="M 109.144531 196.097656 L 265.867188 196.097656 L 263.234375 178.378906 C 262.921875 176.292969 261.09375 174.71875 258.984375 174.71875 L 116.027344 174.71875 C 113.914062 174.71875 112.089844 176.292969 111.78125 178.378906 Z M 267.816406 199.453125 L 107.195312 199.453125 C 106.707031 199.453125 106.242188 199.242188 105.921875 198.871094 C 105.609375 198.503906 105.464844 198.011719 105.535156 197.53125 L 108.457031 177.882812 C 109.007812 174.167969 112.261719 171.363281 116.027344 171.363281 L 258.984375 171.363281 C 262.75 171.363281 266.003906 174.167969 266.554688 177.882812 L 269.476562 197.53125 C 269.550781 198.011719 269.40625 198.503906 269.089844 198.871094 C 268.769531 199.242188 268.300781 199.453125 267.816406 199.453125 " fill-opacity="1" fill-rule="nonzero"/><g clip-path="url(#001ce8c0ec)"><path fill="#1de9b6" d="M 109.144531 220.761719 L 111.78125 238.484375 C 112.089844 240.566406 113.914062 242.140625 116.027344 242.140625 L 194.742188 242.140625 C 196.855469 242.140625 198.675781 240.566406 198.988281 238.484375 L 201.621094 220.761719 Z M 221.578125 220.761719 L 224.210938 238.484375 C 224.519531 240.566406 226.347656 242.140625 228.457031 242.140625 L 258.984375 242.140625 C 261.09375 242.140625 262.921875 240.566406 263.234375 238.484375 L 265.867188 220.761719 Z M 258.984375 245.496094 L 228.457031 245.496094 C 224.695312 245.496094 221.441406 242.691406 220.886719 238.976562 L 218.179688 220.761719 L 205.015625 220.761719 L 202.3125 238.976562 C 201.761719 242.691406 198.503906 245.496094 194.742188 245.496094 L 116.027344 245.496094 C 112.261719 245.496094 109.007812 242.691406 108.457031 238.976562 L 105.535156 219.332031 C 105.464844 218.847656 105.609375 218.359375 105.921875 217.988281 C 106.242188 217.621094 106.707031 217.40625 107.195312 217.40625 L 203.539062 217.40625 C 203.558594 217.40625 203.574219 217.40625 203.59375 217.40625 L 219.605469 217.40625 C 219.621094 217.40625 219.644531 217.40625 219.65625 217.40625 L 267.816406 217.40625 C 268.300781 217.40625 268.769531 217.621094 269.089844 217.988281 C 269.40625 218.359375 269.550781 218.847656 269.476562 219.332031 L 266.554688 238.976562 C 266.003906 242.691406 262.75 245.496094 258.984375 245.496094 " fill-opacity="1" fill-rule="nonzero"/></g><g clip-path="url(#9c8758b3a3)"><path fill="#1de9b6" d="M 167.515625 159.554688 C 166.589844 159.554688 165.839844 158.804688 165.839844 157.875 C 165.839844 154.953125 167.320312 153.441406 168.511719 152.226562 C 169.546875 151.171875 170.230469 150.476562 170.230469 148.925781 C 170.230469 147.371094 169.546875 146.675781 168.511719 145.621094 C 167.320312 144.40625 165.839844 142.894531 165.839844 139.972656 C 165.839844 137.046875 167.320312 135.535156 168.511719 134.320312 C 169.546875 133.265625 170.230469 132.570312 170.230469 131.015625 C 170.230469 130.089844 170.980469 129.339844 171.910156 129.339844 C 172.835938 129.339844 173.589844 130.089844 173.589844 131.015625 C 173.589844 133.9375 172.105469 135.453125 170.914062 136.667969 C 169.882812 137.71875 169.199219 138.417969 169.199219 139.972656 C 169.199219 141.523438 169.882812 142.222656 170.914062 143.273438 C 172.105469 144.488281 173.589844 146 173.589844 148.925781 C 173.589844 151.847656 172.105469 153.359375 170.914062 154.574219 C 169.882812 155.628906 169.199219 156.324219 169.199219 157.875 C 169.199219 158.804688 168.445312 159.554688 167.515625 159.554688 " fill-opacity="1" fill-rule="nonzero"/></g><g clip-path="url(#f92a886f47)"><path fill="#1de9b6" d="M 185.308594 159.554688 C 184.382812 159.554688 183.632812 158.804688 183.632812 157.875 C 183.632812 154.953125 185.113281 153.441406 186.304688 152.226562 C 187.339844 151.171875 188.019531 150.476562 188.019531 148.925781 C 188.019531 147.371094 187.339844 146.675781 186.304688 145.621094 C 185.113281 144.40625 183.632812 142.894531 183.632812 139.972656 C 183.632812 137.046875 185.113281 135.535156 186.304688 134.320312 C 187.339844 133.265625 188.019531 132.570312 188.019531 131.015625 C 188.019531 130.089844 188.773438 129.339844 189.703125 129.339844 C 190.628906 129.339844 191.382812 130.089844 191.382812 131.015625 C 191.382812 133.9375 189.898438 135.453125 188.707031 136.667969 C 187.671875 137.71875 186.988281 138.417969 186.988281 139.972656 C 186.988281 141.523438 187.671875 142.222656 188.707031 143.273438 C 189.898438 144.488281 191.382812 146 191.382812 148.925781 C 191.382812 151.847656 189.898438 153.359375 188.707031 154.574219 C 187.671875 155.628906 186.988281 156.324219 186.988281 157.875 C 186.988281 158.804688 186.238281 159.554688 185.308594 159.554688 " fill-opacity="1" fill-rule="nonzero"/></g><g clip-path="url(#f79fc90201)"><path fill="#1de9b6" d="M 203.105469 159.554688 C 202.175781 159.554688 201.425781 158.804688 201.425781 157.875 C 201.425781 154.953125 202.910156 153.441406 204.101562 152.226562 C 205.132812 151.171875 205.8125 150.476562 205.8125 148.925781 C 205.8125 147.371094 205.132812 146.675781 204.101562 145.621094 C 202.910156 144.40625 201.425781 142.894531 201.425781 139.972656 C 201.425781 137.046875 202.910156 135.535156 204.101562 134.320312 C 205.132812 133.265625 205.8125 132.570312 205.8125 131.015625 C 205.8125 130.089844 206.570312 129.339844 207.496094 129.339844 C 208.421875 129.339844 209.175781 130.089844 209.175781 131.015625 C 209.175781 133.9375 207.695312 135.453125 206.5 136.667969 C 205.464844 137.71875 204.785156 138.417969 204.785156 139.972656 C 204.785156 141.523438 205.464844 142.222656 206.5 143.273438 C 207.695312 144.488281 209.175781 146 209.175781 148.925781 C 209.175781 151.847656 207.695312 153.359375 206.5 154.574219 C 205.464844 155.628906 204.785156 156.324219 204.785156 157.875 C 204.785156 158.804688 204.03125 159.554688 203.105469 159.554688 " fill-opacity="1" fill-rule="nonzero"/></g><path fill="#1de9b6" d="M 116.664062 191.304688 C 116.578125 191.304688 116.496094 191.296875 116.410156 191.285156 C 115.492188 191.148438 114.863281 190.296875 114.996094 189.382812 L 116.253906 180.945312 C 116.375 180.125 117.078125 179.511719 117.914062 179.511719 L 153.902344 179.511719 C 154.832031 179.511719 155.585938 180.265625 155.585938 181.191406 C 155.585938 182.117188 154.832031 182.867188 153.902344 182.867188 L 119.363281 182.867188 L 118.324219 189.875 C 118.195312 190.703125 117.480469 191.304688 116.664062 191.304688 " fill-opacity="1" fill-rule="nonzero"/><path fill="#1de9b6" d="M 171.515625 182.867188 L 164.15625 182.867188 C 163.230469 182.867188 162.476562 182.117188 162.476562 181.191406 C 162.476562 180.265625 163.230469 179.511719 164.15625 179.511719 L 171.515625 179.511719 C 172.445312 179.511719 173.199219 180.265625 173.199219 181.191406 C 173.199219 182.117188 172.445312 182.867188 171.515625 182.867188 " fill-opacity="1" fill-rule="nonzero"/></svg>